<svg xml:space="preserve" style="max-height: 500px" viewBox="10 452.5 980 107.49999999999999" y="0px" x="0px" version="1.1" xmlns:xlink="http://www.w3.org/1999/xlink" xmlns="http://www.w3.org/2000/svg" width="980" height="107.49999999999999"><g><path d="M502.4,522.6c-1.1-0.5-1.9-0.8-2.4-0.9c-0.6,0.1-1.3,0.4-2.4,0.9c-0.8,0.4-4.4,10.1-6.4,14.6c-0.6,1.4-0.4,3.1,0.5,4.3   c2.4,3.1,5.4,4.4,8.3,4.4c2.9-0.1,5.9-1.4,8.3-4.4c1-1.2,1.2-2.9,0.5-4.3C506.9,532.7,503.2,523,502.4,522.6z"/><path d="M524.5,503.4c-4.9,8,3,24.1,11.4,18c7.9-5.7-7.7-7.4-5.5-14.3c2.7-8.6,13.4-3,16.3,2.1c5.5,9.6-1.9,21.9-11.8,23.8   c-10,1.9-22.8-15.1-27.1-13.8c-7.6,2.4,10.8,19.4,22,19.4c21,1.4,34.8-22.1,18.2-37.8C541,494.2,530.3,494,524.5,503.4z"/><path d="M500,503h-9.5c-1.4,0-2.6,1.2-2.6,2.6s1.2,2.6,2.6,2.6h9.5h9.5c1.4,0,2.6-1.2,2.6-2.6s-1.2-2.6-2.6-2.6H500z"/><path d="M625.9,490c-6.4-1.4-18.5,1.8-13.9,11.7c4.7,10.2,10.1-5.2,16.7-2.6c7.7,3.1,3.6,14.5-1.5,17.7c-7.4,4.7-15.8-1.8-21.2-5.9   c-17.6-13.3-29.3-32.4-53.3-36.3c-9.4-1.5-18.7,0-26.8,4.8c-2.6,1.5-18.5,13.2-12.2,17.3c0.8,0.5,19-12.8,23.7-12.7   c9,0.1,15.6,4.1,20.9,10.9c3.8,4.9,2.9,15.5,6,18.7c14.7,14.8,10.4-16.4,20.6-13c15,5,22.4,39.6,44.4,25.3   C641.8,517.8,642.3,493.5,625.9,490z"/><path d="M959.5,499.3c-11.3-2.4-8.7,6-17.3,5.9c-8.7-0.4,0.3,11.2,8.7,12.3c6.1,0.8,14.6-2.2,17-5.4   C973.6,504.4,968.2,501.2,959.5,499.3z"/><path d="M924.9,508.3c-2.6-8.7,18.1-2.1,18.1-15.5c0-17.1-21,2.3-26.8,4.5c-26,10.1-59.6,6.5-87,6.1L685.8,501   c-12.4-1.9-26.3-14.3-27.3,4.4c-0.2,3.8-0.8,16.4,3.9,18.5c3,1.4,13.8-10.5,26.3-12l225.6,2c6.8,2.2,19.3,16.9,24.5,14.5   C955.1,521.1,926.4,513.3,924.9,508.3z"/><path d="M584.5,521.3c-3.8,0-6.8,3.1-6.8,6.8c0,3.8,3.1,6.8,6.8,6.8s6.8-3.1,6.8-6.8C591.3,524.4,588.3,521.3,584.5,521.3z"/><path d="M650.1,490.7h-2.9c-1.4,0-2.6,1.2-2.6,2.6v32.2c0,1.4,1.2,2.6,2.6,2.6l2.9,0c1.4,0,2.6-1.2,2.6-2.6v-32.2   C652.8,491.9,651.6,490.7,650.1,490.7z"/><path d="M525.4,466.9c-6.1-12.4-12.3,3.2-14.9,3.3c-4.3,0.2-9.9-10.2-10.5-10.1c-0.6-0.2-6.2,10.2-10.5,10.1   c-2.6-0.1-8.8-15.7-14.9-3.3c-3.9,7.8,6.7,6.4,11.2,9.9c2.8,2.2,10.7,15.8,13.4,15.7c0.3,0,1.3,0,1.6,0c2.7,0,10.6-13.5,13.4-15.7   C518.6,473.3,529.2,474.8,525.4,466.9z"/><path d="M492.2,519.2c-4.3-1.4-17.1,15.7-27.1,13.8c-9.9-1.9-17.3-14.2-11.8-23.8c2.9-5.1,13.6-10.7,16.3-2.1   c2.1,6.9-13.4,8.5-5.5,14.3c8.3,6,16.2-10,11.4-18c-5.7-9.4-16.5-9.2-23.4-2.6c-16.6,15.7-2.8,39.2,18.2,37.8   C481.4,538.6,499.9,521.6,492.2,519.2z"/><path d="M486.2,496.6c6.2-4.1-9.6-15.7-12.2-17.3c-8.1-4.7-17.3-6.3-26.8-4.8c-23.9,3.9-35.7,23-53.3,36.3   c-5.4,4.1-13.8,10.6-21.2,5.9c-5.1-3.2-9.2-14.6-1.5-17.7c6.5-2.6,12,12.7,16.7,2.6c4.6-9.9-7.6-13.1-13.9-11.7   c-16.3,3.5-15.9,27.8-3.5,35.8c22,14.2,29.5-20.3,44.4-25.3c10.2-3.4,5.9,27.8,20.6,13c3.2-3.2,2.3-13.8,6-18.7   c5.3-6.8,11.9-10.8,20.9-10.9C467.2,483.9,485.5,497.1,486.2,496.6z"/><path d="M57.8,505.2c-8.6,0.2-6-8.2-17.3-5.9c-8.7,1.8-14.1,5.1-8.4,12.8c2.4,3.2,11,6.1,17,5.4C57.5,516.4,66.5,504.7,57.8,505.2z"/><path d="M314.2,501l-143.5,2.4c-27.4,0.4-61,4.1-87-6.1C78,495.1,57,475.8,57,492.8c0,13.3,20.6,6.7,18.1,15.5   c-1.5,5-30.2,12.8-13.8,20.1c5.2,2.3,17.8-12.3,24.5-14.5l225.6-2c12.5,1.5,23.3,13.4,26.3,12c4.7-2.1,4.2-14.7,3.9-18.5   C340.5,486.7,326.6,499,314.2,501z"/><path d="M415.5,521.3c-3.8,0-6.8,3.1-6.8,6.8c0,3.8,3.1,6.8,6.8,6.8c3.8,0,6.8-3.1,6.8-6.8C422.3,524.4,419.2,521.3,415.5,521.3z"/><path d="M352.7,490.7h-2.9c-1.4,0-2.6,1.2-2.6,2.6v32.2c0,1.4,1.2,2.6,2.6,2.6l2.9,0c1.4,0,2.6-1.2,2.6-2.6v-32.2   C355.3,491.9,354.2,490.7,352.7,490.7z"/></g><text font-family="'Helvetica Neue', Helvetica, Arial-Unicode, Arial, Sans-serif" font-weight="bold" font-size="5px" fill="#000000" y="1015" x="0">Created by Alvaro Cabrera</text><text font-family="'Helvetica Neue', Helvetica, Arial-Unicode, Arial, Sans-serif" font-weight="bold" font-size="5px" fill="#000000" y="1020" x="0">from the Noun Project</text></svg>