<svg xml:space="preserve" style="max-height: 500px" viewBox="10 437.5 982.5 127.49999999999999" y="0px" x="0px" version="1.1" xmlns:xlink="http://www.w3.org/1999/xlink" xmlns="http://www.w3.org/2000/svg" width="982.5" height="127.49999999999999"><g><path d="M500.4,488.7c-10.9,0-19.8,5.4-19.8,12.1c0,6.7,8.8,12.1,19.8,12.1c10.9,0,19.8-5.4,19.8-12.1   C520.2,494.1,511.4,488.7,500.4,488.7z M500.4,508c-7.2,0-12.9-3.1-12.9-7.2c0-4.1,5.7-7.2,12.9-7.2c7.2,0,12.9,3.1,12.9,7.2   C513.3,504.9,507.6,508,500.4,508z"/><path d="M955.1,501.1c0-6,2.6-13.7,7-17.6l-0.3-0.3l-8.2,4.6c-13.2,7.2-26.5,10.9-38.2,10.9H582.1h-1.7h-9.1   c-11.8,0-25-3.8-38.2-10.9l-8.5-4.6c4.4,4.3,7,11.9,7,18c0,6-2.6,13.7-7,18l8.5-4.6c13.2-7.2,26.5-10.9,38.2-10.9h9.1h1.7h333.3   c11.8,0,25,3.8,38.2,10.9l8.2,4.6l0.3-0.3C957.7,514.8,955.1,507.1,955.1,501.1z"/><path d="M474.8,483.5l-0.3-0.3l-8.2,4.6c-13.2,7.2-26.5,10.9-38.2,10.9H94.8h-1.7H84c-11.8,0-25-3.8-38.2-10.9l-8.5-4.6   c4.4,4.3,7,11.9,7,18c0,6-2.6,13.7-7,18l8.5-4.6c13.2-7.2,26.5-10.9,38.2-10.9h9.1h1.7h333.3c11.8,0,25,3.8,38.2,10.9l8.2,4.6   l0.3-0.3c-4.4-3.9-7-11.6-7-17.6C467.8,495.1,470.4,487.4,474.8,483.5z"/></g><text font-family="'Helvetica Neue', Helvetica, Arial-Unicode, Arial, Sans-serif" font-weight="bold" font-size="5px" fill="#000000" y="1015" x="0">Created by Alvaro Cabrera</text><text font-family="'Helvetica Neue', Helvetica, Arial-Unicode, Arial, Sans-serif" font-weight="bold" font-size="5px" fill="#000000" y="1020" x="0">from the Noun Project</text></svg>